# sphere.obj — unit sphere, 8 longitudes x 6 latitudes, 42 vertices

v  0.0    1.0    0.0
v  0.5    0.866  0.0
v  0.354  0.866  0.354
v  0.0    0.866  0.5
v -0.354  0.866  0.354
v -0.5    0.866  0.0
v -0.354  0.866 -0.354
v  0.0    0.866 -0.5
v  0.354  0.866 -0.354
v  0.866  0.5    0.0
v  0.612  0.5    0.612
v  0.0    0.5    0.866
v -0.612  0.5    0.612
v -0.866  0.5    0.0
v -0.612  0.5   -0.612
v  0.0    0.5   -0.866
v  0.612  0.5   -0.612
v  1.0    0.0    0.0
v  0.707  0.0    0.707
v  0.0    0.0    1.0
v -0.707  0.0    0.707
v -1.0    0.0    0.0
v -0.707  0.0   -0.707
v  0.0    0.0   -1.0
v  0.707  0.0   -0.707
v  0.866 -0.5    0.0
v  0.612 -0.5    0.612
v  0.0   -0.5    0.866
v -0.612 -0.5    0.612
v -0.866 -0.5    0.0
v -0.612 -0.5   -0.612
v  0.0   -0.5   -0.866
v  0.612 -0.5   -0.612
v  0.5   -0.866  0.0
v  0.354 -0.866  0.354
v  0.0   -0.866  0.5
v -0.354 -0.866  0.354
v -0.5   -0.866  0.0
v -0.354 -0.866 -0.354
v  0.0   -0.866 -0.5
v  0.354 -0.866 -0.354
v  0.0   -1.0    0.0

# Top cap
f 1 2 3
f 1 3 4
f 1 4 5
f 1 5 6
f 1 6 7
f 1 7 8
f 1 8 9
f 1 9 2

# Band 1
f 2 10 11
f 2 11 3
f 3 11 12
f 3 12 4
f 4 12 13
f 4 13 5
f 5 13 14
f 5 14 6
f 6 14 15
f 6 15 7
f 7 15 16
f 7 16 8
f 8 16 17
f 8 17 9
f 9 17 10
f 9 10 2

# Band 2
f 10 18 19
f 10 19 11
f 11 19 20
f 11 20 12
f 12 20 21
f 12 21 13
f 13 21 22
f 13 22 14
f 14 22 23
f 14 23 15
f 15 23 24
f 15 24 16
f 16 24 25
f 16 25 17
f 17 25 18
f 17 18 10

# Band 3
f 18 26 27
f 18 27 19
f 19 27 28
f 19 28 20
f 20 28 29
f 20 29 21
f 21 29 30
f 21 30 22
f 22 30 31
f 22 31 23
f 23 31 32
f 23 32 24
f 24 32 33
f 24 33 25
f 25 33 26
f 25 26 18

# Band 4
f 26 34 35
f 26 35 27
f 27 35 36
f 27 36 28
f 28 36 37
f 28 37 29
f 29 37 38
f 29 38 30
f 30 38 39
f 30 39 31
f 31 39 40
f 31 40 32
f 32 40 41
f 32 41 33
f 33 41 34
f 33 34 26

# Bottom cap
f 42 35 34
f 42 36 35
f 42 37 36
f 42 38 37
f 42 39 38
f 42 40 39
f 42 41 40
f 42 34 41
